<?xml version="1.0" encoding="UTF-8"?>
<svg width="28px" height="32px" viewBox="0 0 28 32" version="1.1" xmlns="http://www.w3.org/2000/svg" xmlns:xlink="http://www.w3.org/1999/xlink">
    <!-- Generator: Sketch 64 (93537) - https://sketch.com -->
    <title>Shape</title>
    <desc>Created with Sketch.</desc>
    <g id="Page-1" stroke="none" stroke-width="1" fill="none" fill-rule="evenodd">
        <path d="M23.2454757,16.9102183 C23.2310203,14.2883129 24.4308135,12.3093815 26.8593104,10.8519736 C25.5005085,8.93019555 23.4478504,7.87286039 20.7374744,7.66567986 C18.1716517,7.46564348 15.367316,9.14452024 14.3409869,9.14452024 C13.2568365,9.14452024 10.7705183,7.73712142 8.81904751,7.73712142 C4.78600797,7.80141883 0.5,10.916271 0.5,17.2531378 C0.5,19.1249068 0.846928132,21.0609732 1.5407844,23.0541928 C2.46592608,25.6760982 5.80510936,32.105839 9.28884602,31.9986767 C11.1102187,31.9558117 12.3967439,30.7198727 14.7674194,30.7198727 C17.0658183,30.7198727 18.2583838,31.9986767 20.2893589,31.9986767 C23.8020062,31.9486676 26.823172,26.1047476 27.7049477,23.475698 C22.9925072,21.282442 23.2454757,17.0459573 23.2454757,16.9102183 Z M19.1546148,5.17951342 C21.1277685,2.86480673 20.9470768,0.757280582 20.8892554,0 C19.1473871,0.10001819 17.1308673,1.17164166 15.9816679,2.4933106 C14.7168258,3.90785357 13.9723758,5.6581719 14.1313845,7.62995907 C16.0178063,7.7728422 17.7379916,6.81552524 19.1546148,5.17951342 Z" id="Shape" fill="#000000"></path>
    </g>
</svg>